<?xml version="1.0" encoding="utf-8"?>
<!-- Generator: Adobe Illustrator 22.1.0, SVG Export Plug-In . SVG Version: 6.00 Build 0)  -->
<svg version="1.1" id="Capa_1" xmlns="http://www.w3.org/2000/svg" xmlns:xlink="http://www.w3.org/1999/xlink" x="0px" y="0px"
	 viewBox="0 0 72 67" style="enable-background:new 0 0 72 67;" xml:space="preserve">
<style type="text/css">
	.st0{fill:#EB0029;}
	.st1{fill:#FFFFFF;}
</style>
<g>
	<path class="st0" d="M64,33.2c0,16.2-13.1,29.3-29.3,29.3c-16.2,0-29.3-13.1-29.3-29.3S18.5,3.8,34.7,3.8C50.9,3.8,64,17,64,33.2z"
		/>
	<path class="st1" d="M53.1,50c0,0,0.7,0.7-0.1,1.6c-0.8,0.8-1.6,0.1-1.6,0.1L16.2,16.4c0,0-0.7-0.7,0.1-1.5
		c0.9-0.9,1.5-0.1,1.5-0.1L53.1,50z"/>
	<path class="st1" d="M16.2,50c0,0-0.7,0.7,0.1,1.6c0.8,0.8,1.6,0.1,1.6,0.1l35.2-35.2c0,0,0.7-0.7-0.1-1.5
		c-0.9-0.9-1.5-0.1-1.5-0.1L16.2,50z"/>
</g>
</svg>
